<svg fill="#40C057" xmlns="http://www.w3.org/2000/svg"  viewBox="0 0 48 48" width="48px" height="48px"><path d="M 23.996094 2.0039062 C 11.852094 2.0039062 1.9941406 11.859906 1.9941406 24.003906 C 1.9941406 28.103906 3.1172656 31.941516 5.0722656 35.228516 L 1.9941406 46.003906 L 13.232422 43.193359 C 16.415422 44.982359 20.087094 46.003906 23.996094 46.003906 C 36.140094 46.003906 45.996094 36.147906 45.996094 24.003906 C 45.996094 11.859906 36.140094 2.0039062 23.996094 2.0039062 z M 23.996094 3.0039062 C 35.586094 3.0039062 44.998047 12.412906 44.998047 24.003906 C 44.998047 35.595906 35.586094 45.002906 23.996094 45.003906 C 20.263094 45.003906 16.761609 44.031219 13.724609 42.324219 C 13.501609 42.198219 13.239187 42.161609 12.992188 42.224609 L 3.4316406 44.613281 L 6.0351562 35.503906 C 6.1091562 35.239906 6.0726406 34.95575 5.9316406 34.71875 C 4.0666406 31.58275 2.9960938 27.919906 2.9960938 24.003906 C 2.9960937 12.412906 12.404094 3.0039062 23.996094 3.0039062 z M 23.996094 6.0039062 C 14.060094 6.0039062 5.9941406 14.070906 5.9941406 24.003906 C 5.9941406 27.364906 6.9127656 30.498594 8.5097656 33.183594 L 9.3925781 34.667969 L 7.7421875 40.443359 L 13.806641 38.927734 L 15.193359 39.707031 C 17.793359 41.169031 20.791094 42.003906 23.996094 42.003906 C 33.930094 42.003906 41.996094 33.938906 41.996094 24.003906 C 41.996094 14.070906 33.931094 6.0039062 23.996094 6.0039062 z M 16.332031 13.003906 L 17.369141 13.015625 C 17.755141 13.031625 18.182938 13.052484 18.585938 14.021484 C 19.070938 15.179484 20.122812 18.063469 20.257812 18.355469 C 20.391813 18.647469 20.483734 18.990906 20.302734 19.378906 C 20.122734 19.766906 20.032719 20.010562 19.761719 20.351562 C 19.491719 20.692563 19.194266 21.113047 18.947266 21.373047 C 18.675266 21.662047 18.394938 21.977453 18.710938 22.564453 C 19.026938 23.147453 20.113656 25.059516 21.722656 26.603516 C 23.790656 28.593516 25.534219 29.211906 26.074219 29.503906 C 26.616219 29.793906 26.932047 29.746469 27.248047 29.355469 C 27.564047 28.964469 28.599937 27.652359 28.960938 27.068359 C 29.320937 26.484359 29.682688 26.580391 30.179688 26.775391 C 30.677688 26.969391 33.337906 28.383781 33.878906 28.675781 C 34.420906 28.965781 34.780969 29.110469 34.917969 29.355469 C 35.050969 29.599469 35.050562 30.768812 34.601562 32.132812 C 34.147562 33.493813 31.942266 34.808297 30.947266 34.904297 C 29.954266 35.003297 29.025172 35.389266 24.451172 33.447266 C 18.949172 31.104266 15.476078 25.025719 15.205078 24.636719 C 14.935078 24.246719 12.994141 21.469656 12.994141 18.597656 C 12.994141 15.727656 14.392672 14.317422 14.888672 13.732422 C 15.385672 13.147422 15.971031 13.003906 16.332031 13.003906 z"/></svg>