<svg width="602" height="219" viewBox="0 0 602 219" fill="none" xmlns="http://www.w3.org/2000/svg">
<path opacity="0.858824" d="M177 0.734924L179.5 2.23492L183.5 15.2349L189 20.7349L198 24.7349C198.867 23.2683 199.7 23.4349 200.5 25.2349L201.5 27.2349L198 29.7349L196.5 29.2349C197.033 30.9683 196.2 31.4683 194 30.7349L184.5 37.2349L181.5 43.2349C183.167 44.2349 182.833 45.2349 180.5 46.2349L178 50.7349C175.8 51.4683 174.967 50.9683 175.5 49.2349L171.5 38.2349L167 32.7349L156 27.7349H152.5L154 24.7349C161.133 24.5349 166.3 22.3683 169.5 18.2349L173.5 10.2349C171.833 9.23492 172.167 8.23492 174.5 7.23492L177 0.734924Z" fill="#3B6C6A" stroke="#3B6C6A"/>
<path opacity="0.858824" d="M44 5.73492L60 6.73492L63 8.73492H65L85 14.7349C88 17.7349 92.3333 19.4016 98 19.7349L102 22.7349L116 24.7349L119 26.7349L121 25.7349L123 26.7349H125H137L138 25.7349L140 26.7349H142L148.5 24.7349L149.5 28.2349L131 35.7349L120 36.7349C119.333 38.7349 117.333 39.4016 114 38.7349L111 36.7349L96 35.7349L65 26.7349L47 25.7349L37 28.7349L30.5 34.2349L21.5 52.2349L20.5 74.2349L21.5 75.2349L22.5 87.2349L25.5 92.2349L24.5 94.2349L26.5 96.2349L27.5 104.235L29.5 107.235L34.5 127.235L47.5 164.235L48.5 171.735L50.5 172.235V174.235L54.5 186.735C56.3 187.468 56.9667 186.968 56.5 185.235L61.5 177.235L69.5 157.235L70.5 151.235L75.5 141.235L84.5 107.735C86.5 108.602 87.1667 107.768 86.5 105.235L89.5 98.7349C91.7667 99.2683 93.2667 98.6016 94 96.7349H103C107.4 97.3349 110.567 99.1683 112.5 102.235L118.5 120.235V122.235L119.5 124.235V126.235L124.5 145.235L127.5 151.235C125.833 152.235 126.167 153.235 128.5 154.235C127.7 158.235 128.367 159.902 130.5 159.235V164.235L132.5 166.235L139 186.735L151.5 159.235L160.5 128.235L164.5 120.235L174.5 88.2349L187 68.7349L190 66.7349L198 61.7349C200.667 62.7349 201.5 65.5683 200.5 70.2349C197.033 77.2349 194.7 85.0683 193.5 93.7349C191.3 92.8683 190.633 94.0349 191.5 97.2349C188.033 104.102 185.7 112.102 184.5 121.235L182.5 123.235V125.235L179.5 133.235V135.235L178.5 137.235L179 138.735C177.267 138.202 176.767 139.035 177.5 141.235L173.5 152.235L172.5 159.235L168.5 168.235L167.5 175.235L165.5 177.235L156.5 205.235L153.5 209.735L150.5 211.235C151.033 212.768 150.533 213.268 149 212.735C146.133 214.868 142.133 215.868 137 215.735L126.5 211.235L120.5 201.235L112.5 177.235V172.735C110.3 173.602 109.633 172.435 110.5 169.235L99.5 136.735C97.5 135.935 96.8333 136.768 97.5 139.235L89.5 161.235V164.235L86.5 168.235L82.5 183.235L77.5 193.235L78.5 194.235L75.5 197.235C74.1 203.502 71.2667 208.335 67 211.735L60 215.735L58 214.735L53 215.735C47.5333 214.535 43.3667 212.035 40.5 208.235L31.5 190.235L22.5 161.235V156.735L20.5 156.235V154.235L9.5 119.235V114.735C7.3 115.602 6.63333 114.435 7.5 111.235L0.5 87.2349V47.2349C3.43333 34.5016 9.26667 24.6683 18 17.7349L22.5 15.7349C21.7667 13.9349 22.2667 13.2683 24 13.7349L31 8.73492L44 5.73492Z" fill="#3B6C6A" stroke="#3B6C6A"/>
<path opacity="0.858824" d="M327 94.7349L331 95.7349H333L347 96.7349L360.5 100.735L362.5 107.235L361.5 110.235L360.5 119.235L358 121.735L345 115.735L332 113.735H330L320 114.735L310 118.735L303.5 123.235C299.767 126.102 297.767 130.268 297.5 135.735C295.5 134.935 294.833 135.768 295.5 138.235L293.5 142.235L292.5 154.235L293.5 155.235V165.735L295.5 166.235L294.5 168.235L298.5 180.735C300.3 180.002 300.967 180.502 300.5 182.235L309 191.735L322 196.735H324L328 197.735L339 195.735H341L346 194.735C347 196.402 348 196.068 349 193.735L358 191.735L361.5 194.235L363.5 202.235L361 206.735L353.5 210.735C354.367 212.935 353.2 213.602 350 212.735L347 214.735H345L339 216.735C334 215.735 330.333 216.068 328 217.735L324 216.735L322 217.735L299 211.735L289 205.735L284.5 201.235L275.5 190.235L271.5 179.235L269.5 169.235V147.235L271.5 137.235L277.5 122.235L290 107.735L304 99.7349L317 95.7349H326L327 94.7349Z" fill="#3B6C6A" stroke="#3B6C6A"/>
<path opacity="0.858824" d="M223 122.735L239 125.735L251.5 135.235L258.5 147.235L260.5 156.235V169.235L258.5 174.735L256 175.735H203.5V183.235L209.5 193.735L218 198.735L223 199.735H225L228 198.735L231 199.735L239 197.735H241L253 192.735C256.8 194.935 258.633 199.102 258.5 205.235L253 209.735H250.5L249 212.735H245L242 214.735L234 215.735L230 217.735H228C224.333 218.735 222 218.402 221 216.735H219H214L204 213.735L190.5 202.235L188.5 199.235L182.5 187.235C183.367 184.102 183.033 182.102 181.5 181.235V164.235L185.5 148.235L194.5 134.735L207 126.735L223 122.735ZM221.5 138.735L209.5 144.735L204.5 158.735L205.5 160.735H242.5V154.735L238.5 146.735C235.833 140.735 230.167 138.068 221.5 138.735Z" fill="#3B6C6A" stroke="#3B6C6A"/>
<path opacity="0.858824" d="M413 122.735L435 126.735L443.5 133.235L448.5 142.235V146.235L451.5 154.235V161.235V163.235V208.235L452.5 210.235L449.5 214.735L443 215.735L440 214.735L437 215.735L435 213.735L430.5 211.235C431.233 209.035 430.733 208.202 429 208.735L427 207.735L413 215.735H411L408 216.735L406 215.735L405 216.735H394C386.333 214.735 380.5 210.902 376.5 205.235L373.5 198.235L372.5 190.235L374.5 181.235L378 175.735L385 169.735H387.5C386.7 167.735 387.533 167.068 390 167.735L403 162.735H408L413 160.735H419L428.5 158.735L429.5 153.235L426 143.735C424.267 144.202 423.767 143.535 424.5 141.735H422L421 140.735H405L385 145.735L380.5 143.235L379.5 136.235L383 131.735L400 124.735L412 123.735L413 122.735ZM427.5 171.735L410.5 174.735L399.5 179.735L394.5 186.735V193.735L397.5 197.735L407.5 199.735H409.5L422.5 196.735H424.5L428.5 193.735L429.5 187.735V176.735V174.735C430.167 172.068 429.5 171.068 427.5 171.735Z" fill="#3B6C6A" stroke="#3B6C6A"/>
<path opacity="0.858824" d="M505 123.735H515C514.6 125.602 515.433 126.268 517.5 125.735V142.235L516 143.735L501 144.735L493.5 150.235L492.5 154.735L490.5 155.235V157.235L488.5 173.235L489.5 174.235V203.235V205.235L488.5 207.235L489.5 210.235L488 213.735L481 215.735H479L474 214.735H470C468.533 215.268 468.033 214.768 468.5 213.235L466.5 211.235V147.235L467.5 144.235V140.235L466.5 132.235L470 126.735H485L486.5 128.235L488 136.735C490.867 135.868 492.033 133.868 491.5 130.735L497 126.735L505 123.735Z" fill="#3B6C6A" stroke="#3B6C6A"/>
<path opacity="0.858824" d="M557 123.735H572L586.5 129.735C585.767 131.535 586.267 132.202 588 131.735L591 135.735L593.5 137.235C599.433 143.968 601.767 154.302 600.5 168.235L599.5 173.235L597 175.735H544L543.5 177.235L544.5 179.235L543.5 183.235L547.5 192.735L558 198.735H560L562 199.735H564L571 198.735L574 199.735L582 196.735H584L587 194.735C588 196.402 589 196.068 590 193.735L592 192.735L595.5 193.735L598.5 204.235L596 207.735L590.5 209.735C591.233 211.535 590.733 212.202 589 211.735L580 215.735H578L570 217.735H568L560 216.735H558L554 215.735H552L543 213.735L539.5 211.735L538 208.735H536L531.5 204.235C528.167 201.435 526.167 197.602 525.5 192.735C523.3 193.602 522.633 192.435 523.5 189.235L521.5 185.235L520.5 166.235L523.5 151.235L526.5 148.235L531.5 137.735C536.1 135.935 539.933 132.935 543 128.735L557 123.735ZM562.5 138.735L550.5 142.735L546.5 149.735C544.5 152.402 543.833 156.068 544.5 160.735H580.5L581.5 159.735V154.735L578.5 146.735C575.833 140.735 570.5 138.068 562.5 138.735Z" fill="#3B6C6A" stroke="#3B6C6A"/>
</svg>
